<?xml version="1.0" encoding="UTF-8" standalone="no"?>
<!-- Created with Inkscape (http://www.inkscape.org/) -->

<svg
   width="292.9263"
   height="45.323547"
   viewBox="0 0 77.503415 11.991856"
   version="1.1"
   id="svg8"
   inkscape:version="1.1 (c68e22c387, 2021-05-23)"
   sodipodi:docname="Digital Medium.svg"
   xmlns:inkscape="http://www.inkscape.org/namespaces/inkscape"
   xmlns:sodipodi="http://sodipodi.sourceforge.net/DTD/sodipodi-0.dtd"
   xmlns="http://www.w3.org/2000/svg"
   xmlns:svg="http://www.w3.org/2000/svg"
   xmlns:rdf="http://www.w3.org/1999/02/22-rdf-syntax-ns#"
   xmlns:cc="http://creativecommons.org/ns#"
   xmlns:dc="http://purl.org/dc/elements/1.1/">
  <title
     id="title2453">Date-Time Digital Medium</title>
  <defs
     id="defs2" />
  <sodipodi:namedview
     id="base"
     pagecolor="#ffffff"
     bordercolor="#666666"
     borderopacity="1.0"
     inkscape:pageopacity="0.0"
     inkscape:pageshadow="2"
     inkscape:zoom="1.4"
     inkscape:cx="108.57143"
     inkscape:cy="55.357143"
     inkscape:document-units="px"
     inkscape:current-layer="layer1"
     showgrid="false"
     showborder="false"
     units="px"
     inkscape:window-width="1640"
     inkscape:window-height="1045"
     inkscape:window-x="1627"
     inkscape:window-y="146"
     inkscape:window-maximized="0"
     inkscape:pagecheckerboard="0" />
  <metadata
     id="metadata5">
    <rdf:RDF>
      <cc:Work
         rdf:about="">
        <dc:rights>
          <cc:Agent>
            <dc:title>©2021 Bryan McWhirt</dc:title>
          </cc:Agent>
        </dc:rights>
        <dc:date>2021.07.25</dc:date>
        <dc:creator>
          <cc:Agent>
            <dc:title>Bryan McWhirt</dc:title>
          </cc:Agent>
        </dc:creator>
        <cc:license
           rdf:resource="http://creativecommons.org/licenses/by-nc-sa/4.0/" />
        <dc:language>English</dc:language>
        <dc:source>https://github.com/bmmcwhirt/OpenJournalStencils</dc:source>
        <dc:title>Date-Time Digital Medium</dc:title>
      </cc:Work>
      <cc:License
         rdf:about="http://creativecommons.org/licenses/by-nc-sa/4.0/">
        <cc:permits
           rdf:resource="http://creativecommons.org/ns#Reproduction" />
        <cc:permits
           rdf:resource="http://creativecommons.org/ns#Distribution" />
        <cc:requires
           rdf:resource="http://creativecommons.org/ns#Notice" />
        <cc:requires
           rdf:resource="http://creativecommons.org/ns#Attribution" />
        <cc:prohibits
           rdf:resource="http://creativecommons.org/ns#CommercialUse" />
        <cc:permits
           rdf:resource="http://creativecommons.org/ns#DerivativeWorks" />
        <cc:requires
           rdf:resource="http://creativecommons.org/ns#ShareAlike" />
      </cc:License>
    </rdf:RDF>
  </metadata>
  <g
     inkscape:label="Layer 1"
     inkscape:groupmode="layer"
     id="layer1"
     transform="translate(109.13613,-72.256623)">
    <path
       id="path2675"
       style="font-style:normal;font-weight:bold;font-size:16.9333px;line-height:1.25;font-family:DS-Digital;-inkscape-font-specification:'DS-Digital, Bold';letter-spacing:0.264583px;word-spacing:0px;display:inline;stroke-width:0.264583"
       d="m -35.58894,79.045337 -3.0326,5.203141 -0.60036,-2.201329 2.03199,-3.463629 1.38545,-0.35406 z m -0.29249,-2.724722 2.032,-3.494417 2.21672,-0.569575 -3.04799,5.218535 -0.81588,0.215515 z m -5.17523,-3.494417 -1.60096,1.61636 h -3.01721 l -1.60097,-1.61636 z m 0,10.775736 h -6.21914 l 1.60097,-1.600967 h 3.01721 z m -4.92605,-4.079386 v 2.170541 l -1.60096,1.600967 v -4.17175 l 0.60036,-0.600362 z m -1.60096,-2.216723 v -4.171749 l 1.60096,1.600966 v 2.170541 l -1.0006,1.015998 z m 6.8195,1.816481 v 4.17175 l -1.60097,-1.600967 v -2.170541 l 1.00061,-1.000604 z m -1.60097,-2.216723 v -2.170541 l 1.60097,-1.600966 v 4.171749 l -0.60036,0.615756 z m -0.0924,0.507999 0.80048,0.800484 -0.80048,0.800483 h -3.41745 l -0.80048,-0.800483 0.80048,-0.800484 z m -7.48428,-4.587384 -1.60097,1.61636 h -3.0172 l -1.60097,-1.61636 z m 0,10.775736 h -6.21914 l 1.60097,-1.600967 h 3.0172 z m -4.92605,-4.079386 v 2.170541 l -1.60097,1.600967 v -4.17175 l 0.60037,-0.600362 z m -1.60097,-2.216723 v -4.171749 l 1.60097,1.600966 v 2.170541 l -1.0006,1.015998 z m 6.81951,1.816481 v 4.17175 l -1.60097,-1.600967 v -2.170541 l 1.0006,-1.000604 z m -1.60097,-2.216723 v -2.170541 l 1.60097,-1.600966 v 4.171749 l -0.60037,0.615756 z m -0.0924,0.507999 0.80048,0.800484 -0.80048,0.800483 h -3.41745 l -0.80049,-0.800483 0.80049,-0.800484 z m -8.96209,6.188352 v -1.600967 h 1.61636 v 1.600967 z m 0,-7.373683 v -1.600966 h 1.61636 v 1.600966 z m -2.54287,-3.402053 -1.600967,1.61636 h -3.017206 l -1.600967,-1.61636 z m 0,10.775736 h -6.21914 l 1.600967,-1.600967 h 3.017206 z m -4.926051,-4.079386 v 2.170541 l -1.600967,1.600967 v -4.17175 l 0.600363,-0.600362 z m -1.600967,-2.216723 v -4.171749 l 1.600967,1.600966 v 2.170541 l -1.000604,1.015998 z m 6.819502,1.816481 v 4.17175 l -1.600967,-1.600967 v -2.170541 l 1.000604,-1.000604 z m -1.600967,-2.216723 v -2.170541 l 1.600967,-1.600966 v 4.171749 l -0.600363,0.615756 z m -0.09236,0.507999 0.800483,0.800484 -0.800483,0.800483 h -3.417448 l -0.800483,-0.800483 0.800483,-0.800484 z m -7.484322,-4.587384 -1.600966,1.61636 h -3.017206 l -1.600967,-1.61636 z m 0,10.775736 h -6.219139 l 1.600967,-1.600967 h 3.017206 z m -4.926051,-4.079386 v 2.170541 l -1.600966,1.600967 v -4.17175 l 0.600362,-0.600362 z m -1.600966,-2.216723 v -4.171749 l 1.600966,1.600966 v 2.170541 l -1.000604,1.015998 z m 6.819502,1.816481 v 4.17175 l -1.600967,-1.600967 v -2.170541 l 1.000604,-1.000604 z m -1.600967,-2.216723 v -2.170541 l 1.600967,-1.600966 v 4.171749 l -0.600363,0.615756 z m -0.09236,0.507999 0.800483,0.800484 -0.800483,0.800483 h -3.417448 l -0.800484,-0.800483 0.800484,-0.800484 z m -8.962124,6.188352 v -1.600967 h 1.616361 v 1.600967 z m 0,-7.373683 v -1.600966 h 1.616361 v 1.600966 z m -2.542874,-3.402053 -1.600966,1.61636 h -3.017206 l -1.600967,-1.61636 z m 0,10.775736 h -6.219139 l 1.600967,-1.600967 h 3.017206 z m -4.926051,-4.079386 v 2.170541 l -1.600966,1.600967 v -4.17175 l 0.600362,-0.600362 z m -1.600966,-2.216723 v -4.171749 l 1.600966,1.600966 v 2.170541 l -1.000604,1.015998 z m 6.819502,1.816481 v 4.17175 l -1.600967,-1.600967 v -2.170541 l 1.000604,-1.000604 z m -1.600967,-2.216723 v -2.170541 l 1.600967,-1.600966 v 4.171749 l -0.600363,0.615756 z m -0.09236,0.507999 0.800483,0.800484 -0.800483,0.800483 h -3.417448 l -0.800483,-0.800483 0.800483,-0.800484 z m -7.484322,-4.587384 -1.600966,1.61636 h -3.017207 l -1.600966,-1.61636 z m 0,10.775736 h -6.219139 l 1.600966,-1.600967 h 3.017207 z m -4.926051,-4.079386 v 2.170541 l -1.60097,1.600967 v -4.17175 l 0.600366,-0.600362 z m -1.60097,-2.216723 v -4.171749 l 1.60097,1.600966 v 2.170541 l -1.000604,1.015998 z m 6.819505,1.816481 v 4.17175 l -1.600966,-1.600967 v -2.170541 l 1.000604,-1.000604 z m -1.600966,-2.216723 v -2.170541 l 1.600966,-1.600966 v 4.171749 l -0.600362,0.615756 z m -0.09236,0.507999 0.800484,0.800484 -0.800484,0.800483 h -3.417447 l -0.800484,-0.800483 0.800484,-0.800484 z m -10.578499,1.631755 -3.0326,5.203141 -0.60036,-2.201329 2.03199,-3.463629 1.38545,-0.35406 z m -0.29249,-2.724722 2.032,-3.494417 2.21672,-0.569575 -3.04799,5.218535 -0.81588,0.215515 z" />
  </g>
</svg>
