<?xml version="1.0" encoding="UTF-8" standalone="no"?>
<!-- Created with Inkscape (http://www.inkscape.org/) -->

<svg
   width="318.53754"
   height="99.528984"
   viewBox="0 0 84.279721 26.333711"
   version="1.1"
   id="svg8"
   xmlns="http://www.w3.org/2000/svg"
   xmlns:svg="http://www.w3.org/2000/svg"
   xmlns:rdf="http://www.w3.org/1999/02/22-rdf-syntax-ns#"
   xmlns:cc="http://creativecommons.org/ns#"
   xmlns:dc="http://purl.org/dc/elements/1.1/">
  <title
     id="title815">Diagonal Double Folded Wavey Banner</title>
  <defs
     id="defs2" />
  <metadata
     id="metadata5">
    <rdf:RDF>
      <cc:Work
         rdf:about="">
        <dc:format>image/svg+xml</dc:format>
        <dc:type
           rdf:resource="http://purl.org/dc/dcmitype/StillImage" />
        <dc:title>Diagonal Double Folded Wavey Banner</dc:title>
        <dc:creator>
          <cc:Agent>
            <dc:title>Bryan McWhirt</dc:title>
          </cc:Agent>
        </dc:creator>
        <dc:rights>
          <cc:Agent>
            <dc:title>©2020 Bryan McWhirt  ALL RIGHTS RESERVED</dc:title>
          </cc:Agent>
        </dc:rights>
        <dc:publisher>
          <cc:Agent>
            <dc:title>Bryan McWhirt</dc:title>
          </cc:Agent>
        </dc:publisher>
        <dc:language>English</dc:language>
      </cc:Work>
    </rdf:RDF>
  </metadata>
  <g
     id="layer1"
     transform="translate(149.6074,-87.939849)">
    <path
       id="path26065"
       style="display:inline;opacity:0.996;fill:#000000;fill-opacity:1;fill-rule:evenodd;stroke:#ffffff;stroke-width:0.330729;stroke-linecap:butt;stroke-linejoin:miter;stroke-opacity:1;paint-order:fill markers stroke"
       d="m -79.26659,107.28259 c -2.081761,0.9118 -3.979526,2.02098 -5.665647,3.27975 0.201162,-1.44735 0.407053,-2.89407 0.61767,-4.34016 m 5.776695,-1.49651 c 0.636912,0.18039 1.268875,0.37868 1.894926,0.59478 1.456928,0.5047 2.970766,1.07879 4.612315,1.45726 l 0,0 c 1.680291,0.38201 3.427439,0.47118 5.145231,0.24402 -1.181013,1.32791 -2.712462,2.50537 -4.517997,3.41539 1.467818,1.38843 3.285331,2.59919 5.438679,3.49327 -2.574768,0.32842 -5.14331,0.199 -7.609544,-0.36425 -2.274122,-0.55475 -4.027812,-1.20019 -5.333321,-1.67171 0,0 0,0 0,0 -1.919426,-0.67733 -3.921735,-1.14168 -5.952959,-1.38737 1.676305,-1.27234 3.564032,-2.39729 5.63638,-3.32759 0.228948,-0.81788 0.457711,-1.63582 0.68629,-2.4538 z M -119.93847,94.108205 c 1.89126,-1.319455 3.54961,-2.759134 4.79579,-4.34095 0.11763,1.454965 0.22905,2.910418 0.33435,4.366339 m -5.38016,2.629942 c -1.58171,-0.110881 -3.17062,-0.306415 -4.75412,-0.546274 l 0,0 c -1.51301,-0.233019 -3.02069,-0.52191 -4.52232,-0.853162 l 0,-10e-7 c -0.43393,-0.09572 -0.87312,-0.197625 -1.31915,-0.298696 -0.11412,-0.02611 -0.24476,-0.05602 -0.3929,-0.08483 0,0 0,0 0,0 -0.0341,0.05096 -0.10534,0.09772 -0.21417,0.143095 -0.0529,0.213659 -1.0186,0.493434 -2.88994,0.937332 1.78012,-0.450578 2.84219,-0.77256 2.90098,-1.043743 0.11937,-0.07515 0.20298,-0.155572 0.24319,-0.244937 0.17482,-0.08212 0.33757,-0.16204 0.47532,-0.247395 0,0 0,0 0,0 0.5426,-0.316549 1.07976,-0.63195 1.59318,-0.957681 0,0 0,0 0,0 0.66359,-0.41523 1.31618,-0.838771 1.95575,-1.27121 -0.42677,-0.643476 -0.84172,-1.290983 -1.24676,-1.941721 0,0 0,0 0,0 -0.30566,-0.506231 -0.63403,-1.022562 -1.00658,-1.546453 0,0 0,0 0,0 -0.0708,-0.1345 -0.24399,-0.289868 -0.53447,-0.463964 -0.0496,0.335142 -0.34165,0.647491 -0.8844,0.938969 -0.16993,1.38867 -6.34314,3.235322 -18.79062,5.658178 12.35644,-2.429522 18.62585,-4.318301 18.80164,-5.764383 0.55327,-0.3212 0.85761,-0.667139 0.91336,-1.040615 0.31711,0.06337 0.52235,0.109128 0.61673,0.132381 0,0 0,0 0,0 0.46894,0.107078 0.89509,0.206913 1.28007,0.292504 1.37438,0.305489 2.73485,0.569734 4.08078,0.77922 3.17305,0.434976 6.09661,0.743715 8.64013,0.500771 -1.24597,1.588462 -2.89717,3.039386 -4.7771,4.37284 -0.0563,0.84992 -0.11255,1.699846 -0.1686,2.549776 z m 0.23291,-2.596128 -0.51551,7.602112 c 2.84937,0.1852 5.78757,0.11412 8.76131,-0.38359 0,0 0,0 0,0 1.98241,-0.32704 3.91159,-0.43174 5.63877,-0.0815 0,0 0,0 0,0 1.2994,0.22155 2.67955,0.77959 4.15869,1.45017 0.3468,0.16354 0.70511,0.33576 1.07656,0.51251 1.170539,0.55696 2.47151,1.15878 3.953478,1.67485 l 10e-7,0 c 2.30557,0.77636 4.731281,1.11658 7.14699,1.01396 0,0 0,0 0,0 3.521636,-0.15784 7.066502,0.25061 10.453777,1.20733 l 2.056136,-7.314351 c -4.170151,-1.167689 -8.509537,-1.670361 -12.837337,-1.489983 l 0,0 c -1.484782,0.06551 -2.988245,-0.143104 -4.380245,-0.619139 l -10e-7,0 c -0.948181,-0.306807 -1.973006,-0.7991 -3.125034,-1.346289 -0.365578,-0.173642 -0.743966,-0.352812 -1.136779,-0.533338 -1.762036,-0.837567 -3.742866,-1.588473 -5.960726,-2.028755 -2.8847,-0.516851 -5.71974,-0.417804 -8.35632,0.06456 l 0,0 c -2.20033,0.408952 -4.52935,0.442668 -6.93376,0.271495 z" />
  </g>
</svg>
