<?xml version="1.0" encoding="UTF-8" standalone="no"?>
<!-- Created with Inkscape (http://www.inkscape.org/) -->

<svg
   width="258.08133"
   height="81.045776"
   viewBox="0 0 68.284016 21.443362"
   version="1.1"
   id="svg8"
   inkscape:version="1.1 (c68e22c387, 2021-05-23)"
   sodipodi:docname="Double Folded Arc Banner.svg"
   xmlns:inkscape="http://www.inkscape.org/namespaces/inkscape"
   xmlns:sodipodi="http://sodipodi.sourceforge.net/DTD/sodipodi-0.dtd"
   xmlns="http://www.w3.org/2000/svg"
   xmlns:svg="http://www.w3.org/2000/svg"
   xmlns:rdf="http://www.w3.org/1999/02/22-rdf-syntax-ns#"
   xmlns:cc="http://creativecommons.org/ns#"
   xmlns:dc="http://purl.org/dc/elements/1.1/">
  <title
     id="title815">Double Folded Arc Banner</title>
  <defs
     id="defs2">
    <inkscape:path-effect
       effect="bend_path"
       id="path-effect23883"
       is_visible="true"
       lpeversion="1"
       bendpath="m -131.97008,96.669427 c 28.27881,-14.648015 48.04451,-8.925389 66.47173,0"
       prop_scale="1"
       scale_y_rel="false"
       vertical="false"
       hide_knot="false"
       bendpath-nodetypes="cc" />
  </defs>
  <sodipodi:namedview
     id="base"
     pagecolor="#ffffff"
     bordercolor="#666666"
     borderopacity="1.0"
     inkscape:pageopacity="0.0"
     inkscape:pageshadow="2"
     inkscape:zoom="1.4"
     inkscape:cx="169.64286"
     inkscape:cy="123.21429"
     inkscape:document-units="px"
     inkscape:current-layer="layer1"
     showgrid="false"
     showborder="false"
     units="px"
     inkscape:window-width="1284"
     inkscape:window-height="1045"
     inkscape:window-x="2089"
     inkscape:window-y="163"
     inkscape:window-maximized="0"
     inkscape:pagecheckerboard="0" />
  <metadata
     id="metadata5">
    <rdf:RDF>
      <cc:Work
         rdf:about="">
        <dc:format>image/svg+xml</dc:format>
        <dc:type
           rdf:resource="http://purl.org/dc/dcmitype/StillImage" />
        <dc:title>Double Folded Arc Banner</dc:title>
        <dc:creator>
          <cc:Agent>
            <dc:title>Bryan McWhirt</dc:title>
          </cc:Agent>
        </dc:creator>
        <dc:rights>
          <cc:Agent>
            <dc:title>©2020 Bryan McWhirt  ALL RIGHTS RESERVED</dc:title>
          </cc:Agent>
        </dc:rights>
        <dc:publisher>
          <cc:Agent>
            <dc:title>Bryan McWhirt</dc:title>
          </cc:Agent>
        </dc:publisher>
        <dc:language>English</dc:language>
      </cc:Work>
    </rdf:RDF>
  </metadata>
  <g
     inkscape:label="Layer 1"
     inkscape:groupmode="layer"
     id="layer1"
     transform="translate(132.9827,-81.212107)">
    <path
       id="path23881"
       style="display:inline;opacity:0.996;fill:#000000;fill-opacity:1;fill-rule:evenodd;stroke:#ffffff;stroke-width:0.330729;stroke-linecap:butt;stroke-linejoin:miter;stroke-opacity:1;paint-order:fill markers stroke"
       d="m -77.35083,93.55452 c -2.424615,0.750753 -4.765972,1.59927 -6.985689,2.558993 0.447241,-1.473799 0.897069,-2.946962 1.349467,-4.419488 m 6.59302,-0.78219 c 3.843474,1.379878 7.59663,3.016992 11.248676,4.787354 -1.7028,0.536011 -3.390213,1.103316 -5.050296,1.704977 0.652728,1.638804 1.265823,3.278054 1.850522,4.912664 -5.250968,-2.509461 -10.561409,-4.732551 -15.896826,-6.24603 2.206446,-0.978614 4.533938,-1.848146 6.944608,-2.621499 0.301187,-0.845797 0.602292,-1.691619 0.903316,-2.537466 z m -43.899038,2.588405 c 2.42234,0.759047 4.75518,1.62822 6.96945,2.605768 -0.43782,-1.479918 -0.87829,-2.959212 -1.32139,-4.437877 m -6.66784,-0.792701 c -3.85607,1.380132 -7.61099,3.050023 -11.22332,4.9308 1.7213,0.484715 3.41687,1.017504 5.07796,1.597083 -0.6177,1.644741 -1.17932,3.288537 -1.69088,4.924937 5.05358,-2.592617 10.32342,-4.765509 15.66957,-6.248798 -2.20202,-0.994332 -4.52204,-1.882169 -6.9315,-2.661547 10e-6,4.6e-5 -0.90185,-2.542521 -0.90183,-2.542475 z m -1.74101,-5.0557 2.70744,7.575003 c 6.96792,-2.494679 14.22693,-4.008763 21.506722,-4.027936 1.229774,-0.0032 2.46014,0.03618 3.689797,0.120745 6.053512,0.387559 11.996278,1.85508 17.7879,3.938463 l 2.712474,-7.559735 c -6.320636,-2.247541 -12.990592,-3.861971 -19.969472,-4.379188 -1.421697,-0.08301 -2.838895,-0.11814 -4.250291,-0.107873 -8.35493,0.06077 -16.50656,1.712387 -24.18457,4.440521 z"
       sodipodi:nodetypes="ccccccccccccccccccccccccccc"
       inkscape:label="Double Fold Arc  Banner"
       inkscape:path-effect="#path-effect23883"
       inkscape:original-d="m -77.07147,97.918971 -5.92405,4.577549 0.12226,-4.627669 m 5.80782,-2.755605 h 11.56709 l -3.70416,3.674929 3.70416,3.674935 -17.41365,-0.0334 5.85486,-4.627659 z m -43.26476,2.805725 5.92402,4.577549 -0.12226,-4.627669 m -5.87461,-2.755605 h -11.56703 l 3.70415,3.674929 -3.70415,3.674935 17.41356,-0.0334 -5.85483,-4.627659 z m 0.0585,-5.32926 v 8.018055 h 21.61022 21.61035 v -8.018055 h -21.61035 z" />
  </g>
</svg>
