<?xml version="1.0" encoding="UTF-8" standalone="no"?>
<!-- Created with Inkscape (http://www.inkscape.org/) -->

<svg
   width="281.25778"
   height="284.03616"
   viewBox="0 0 74.416121 75.151234"
   version="1.1"
   id="svg8"
   xmlns="http://www.w3.org/2000/svg"
   xmlns:svg="http://www.w3.org/2000/svg"
   xmlns:rdf="http://www.w3.org/1999/02/22-rdf-syntax-ns#"
   xmlns:cc="http://creativecommons.org/ns#"
   xmlns:dc="http://purl.org/dc/elements/1.1/">
  <title
     id="title815">10 Slice Pie</title>
  <defs
     id="defs2" />
  <metadata
     id="metadata5">
    <rdf:RDF>
      <cc:Work
         rdf:about="">
        <dc:format>image/svg+xml</dc:format>
        <dc:type
           rdf:resource="http://purl.org/dc/dcmitype/StillImage" />
        <dc:title>10 Slice Pie</dc:title>
        <dc:creator>
          <cc:Agent>
            <dc:title>Bryan McWhirt</dc:title>
          </cc:Agent>
        </dc:creator>
        <dc:rights>
          <cc:Agent>
            <dc:title>©2020 Bryan McWhirt  ALL RIGHTS RESERVED</dc:title>
          </cc:Agent>
        </dc:rights>
        <dc:publisher>
          <cc:Agent>
            <dc:title>Bryan McWhirt</dc:title>
          </cc:Agent>
        </dc:publisher>
        <dc:language>English</dc:language>
      </cc:Work>
    </rdf:RDF>
  </metadata>
  <g
     id="layer1"
     transform="translate(130.38943,-15.571554)">
    <g
       id="g2424"
       style="display:inline"
       transform="translate(-137.55051,-110.62025)">
      <circle
         style="display:inline;opacity:0.996;fill:none;fill-rule:evenodd;stroke:#000000;stroke-width:0.7;stroke-linecap:round;stroke-linejoin:round;stroke-miterlimit:4;stroke-dasharray:none;stroke-opacity:1"
         id="path845"
         cx="44.369141"
         cy="163.76738"
         r="36.858059" />
      <circle
         style="opacity:0.996;fill:none;fill-rule:evenodd;stroke:#000000;stroke-width:0.7;stroke-linecap:round;stroke-linejoin:round;stroke-miterlimit:4;stroke-dasharray:none;stroke-opacity:1"
         id="circle4323"
         cx="44.369141"
         cy="163.76738"
         r="30.633696" />
      <circle
         style="opacity:0.996;fill:none;fill-rule:evenodd;stroke:#000000;stroke-width:0.7;stroke-linecap:round;stroke-linejoin:round;stroke-miterlimit:4;stroke-dasharray:none;stroke-opacity:1"
         id="circle4325"
         cx="44.369141"
         cy="163.76738"
         r="24.409332" />
      <circle
         style="opacity:0.996;fill:none;fill-rule:evenodd;stroke:#000000;stroke-width:0.7;stroke-linecap:round;stroke-linejoin:round;stroke-miterlimit:4;stroke-dasharray:none;stroke-opacity:1"
         id="circle4329"
         cx="44.369141"
         cy="163.76738"
         r="18.52142" />
      <circle
         style="opacity:0.996;fill:none;fill-rule:evenodd;stroke:#000000;stroke-width:0.7;stroke-linecap:round;stroke-linejoin:round;stroke-miterlimit:4;stroke-dasharray:none;stroke-opacity:1"
         id="circle4331"
         cx="44.369141"
         cy="163.76738"
         r="13.474639" />
      <g
         id="g6721"
         style="stroke:#000000;stroke-width:2.42794;stroke-miterlimit:4;stroke-dasharray:none;paint-order:stroke markers fill"
         transform="matrix(0.57662142,0,0,0.57662142,114.76707,89.010481)">
        <g
           id="path6719"
           style="stroke-width:2.42794;stroke-miterlimit:4;stroke-dasharray:none">
          <path
             id="path11027"
             style="color:#000000;fill:#000000;stroke:#ffffff;stroke-width:2.42794;stroke-miterlimit:4;stroke-dasharray:none;stroke-opacity:1;paint-order:markers stroke fill"
             d="m -159.30654,77.855272 -0.53541,0.387714 37.48825,51.597354 0.53542,-0.38957 z m 37.2202,51.790588 c -37.48725,-51.596763 -37.48725,-51.596763 -37.48725,-51.596763 m -23.06595,31.574723 -0.20493,0.62773 60.65509,19.7088 0.20493,-0.62958 z m 60.5532,20.02204 c -60.65564,-19.70821 -60.65564,-19.70821 -60.65564,-19.70821 m 60.5526,19.39312 -60.65509,19.7088 0.20493,0.62957 60.65509,-19.70879 z m 0.10304,0.31509 c -60.65564,19.70821 -60.65564,19.70821 -60.65564,19.70821 m 60.38828,-19.9033 -37.48825,51.59736 0.53541,0.38956 37.48826,-51.59735 z m 0.26736,0.19509 c -37.48725,51.59676 -37.48725,51.59676 -37.48725,51.59676 m 37.15712,-51.59614 v 63.77711 h 0.66096 v -63.77711 z m 0.33013,-6.2e-4 c 0,63.77711 0,63.77711 0,63.77711 m 0.26806,-63.9722 -0.53542,0.38957 37.486409,51.59735 0.535415,-0.38956 z m -0.26806,0.19509 c 37.487241,51.59676 37.487241,51.59676 37.487241,51.59676 m -37.385351,-51.91185 -0.20493,0.62958 60.656935,19.70879 0.203088,-0.62957 z m -0.10189,0.31509 c 60.655632,19.70821 60.655632,19.70821 60.655632,19.70821 m -0.101737,-39.73025 -60.656935,19.70695 0.20493,0.62958 60.655093,-19.7088 z m -60.553895,20.02204 c 60.655632,-19.70821 60.655632,-19.70821 60.655632,-19.70821 m -23.263216,-32.326292 -37.838176,52.079682 0.54044,0.39321 37.838175,-52.081539 z M -122.26224,129.88795 C -84.423216,77.807002 -84.423216,77.807002 -84.423216,77.807002 M -122.41635,65.869241 v 63.777109 h 0.66092 V 65.869241 Z m -0.17349,-0.173929 v 0.173829 62.224609 l -36.67774,-50.480469 -0.14062,0.101563 -0.67578,0.490234 36.67578,50.480472 -59.3418,-19.2793 -0.0547,0.16406 -0.25781,0.79297 59.3418,19.2832 -59.3418,19.28125 0.3125,0.95899 59.34375,-19.28125 -36.67773,50.48047 0.8164,0.59375 36.67774,-50.48242 v 62.40039 h 1.00781 v -62.40039 l 36.67578,50.48242 0.816406,-0.59375 -36.673826,-50.47852 59.343748,19.28125 0.308594,-0.96094 -59.339842,-19.2832 59.339842,-19.28125 -0.308594,-0.95898 -0.166015,0.0547 -59.173833,19.22461 36.849614,-50.718746 -0.822266,-0.595703 -0.101562,0.140625 -36.748046,50.578124 V 65.695312 Z m 0.34765,0.347657 h 0.3125 v 62.523441 l -0.1582,0.21875 -0.1543,-0.21289 z" />
        </g>
      </g>
    </g>
  </g>
</svg>
