<?xml version="1.0" encoding="UTF-8" standalone="no"?>
<!-- Created with Inkscape (http://www.inkscape.org/) -->

<svg
   width="285.04352"
   height="285.04352"
   viewBox="0 0 75.417764 75.417763"
   version="1.1"
   id="svg8"
   xmlns="http://www.w3.org/2000/svg"
   xmlns:svg="http://www.w3.org/2000/svg"
   xmlns:rdf="http://www.w3.org/1999/02/22-rdf-syntax-ns#"
   xmlns:cc="http://creativecommons.org/ns#"
   xmlns:dc="http://purl.org/dc/elements/1.1/">
  <title
     id="title815">12 Slice Pie</title>
  <defs
     id="defs2" />
  <metadata
     id="metadata5">
    <rdf:RDF>
      <cc:Work
         rdf:about="">
        <dc:format>image/svg+xml</dc:format>
        <dc:type
           rdf:resource="http://purl.org/dc/dcmitype/StillImage" />
        <dc:title>12 Slice Pie</dc:title>
        <dc:creator>
          <cc:Agent>
            <dc:title>Bryan McWhirt</dc:title>
          </cc:Agent>
        </dc:creator>
        <dc:rights>
          <cc:Agent>
            <dc:title>©2020 Bryan McWhirt  ALL RIGHTS RESERVED</dc:title>
          </cc:Agent>
        </dc:rights>
        <dc:publisher>
          <cc:Agent>
            <dc:title>Bryan McWhirt</dc:title>
          </cc:Agent>
        </dc:publisher>
        <dc:language>English</dc:language>
      </cc:Work>
    </rdf:RDF>
  </metadata>
  <g
     id="layer1"
     transform="translate(141.82897,7.9632203)">
    <g
       id="g10121"
       style="display:inline"
       transform="translate(-148.48923,-13.900823)">
      <g
         id="g7952"
         transform="matrix(0.63290416,0,0,0.63290416,121.63801,-38.407379)"
         style="display:inline;stroke:#000000;stroke-width:1.10601;stroke-miterlimit:4;stroke-dasharray:none;stroke-opacity:1">
        <circle
           style="display:inline;opacity:0.996;fill:none;fill-rule:evenodd;stroke:#000000;stroke-width:1.10601;stroke-linecap:round;stroke-linejoin:round;stroke-miterlimit:4;stroke-dasharray:none;stroke-opacity:1"
           id="circle7937"
           cx="-122.0863"
           cy="129.64583"
           r="58.208332" />
        <circle
           style="opacity:0.996;fill:none;fill-rule:evenodd;stroke:#000000;stroke-width:1.10601;stroke-linecap:round;stroke-linejoin:round;stroke-miterlimit:4;stroke-dasharray:none;stroke-opacity:1"
           id="circle7939"
           cx="-122.0863"
           cy="129.64583"
           r="48.378464" />
        <circle
           style="opacity:0.996;fill:none;fill-rule:evenodd;stroke:#000000;stroke-width:1.10601;stroke-linecap:round;stroke-linejoin:round;stroke-miterlimit:4;stroke-dasharray:none;stroke-opacity:1"
           id="circle7941"
           cx="-122.0863"
           cy="129.64583"
           r="38.548595" />
        <circle
           style="opacity:0.996;fill:none;fill-rule:evenodd;stroke:#000000;stroke-width:1.10601;stroke-linecap:round;stroke-linejoin:round;stroke-miterlimit:4;stroke-dasharray:none;stroke-opacity:1"
           id="circle7943"
           cx="-122.0863"
           cy="129.64583"
           r="29.250072" />
        <circle
           style="opacity:0.996;fill:none;fill-rule:evenodd;stroke:#000000;stroke-width:1.10601;stroke-linecap:round;stroke-linejoin:round;stroke-miterlimit:4;stroke-dasharray:none;stroke-opacity:1"
           id="circle7945"
           cx="-122.0863"
           cy="129.64583"
           r="21.279911" />
      </g>
      <g
         id="use1484"
         style="display:inline;fill:#000000;fill-opacity:1;stroke:#ffffff;stroke-width:0.504796;stroke-miterlimit:4;stroke-dasharray:none;stroke-opacity:1;paint-order:stroke markers fill"
         transform="matrix(0.99049878,0,0,0.99049878,0.4215609,0.41469478)">
        <path
           style="color:#000000;display:inline;fill:#000000;fill-opacity:1;stroke:#ffffff;stroke-width:1.21151;stroke-miterlimit:4;stroke-dasharray:none;stroke-opacity:1;paint-order:stroke markers fill"
           d="M 44.056641,6.1816406 V 6.3320312 42.476562 l -18.148438,-31.43164 -0.542969,0.3125 18.148438,31.433594 -31.433594,-18.148438 -0.3125,0.542969 31.435547,18.148437 H 6.9042969 v 0.625 H 43.203125 l -31.435547,18.148438 0.3125,0.542969 L 43.513672,44.5 25.365234,75.935547 l 0.542969,0.3125 18.148438,-31.433594 v 36.296875 h 0.626953 V 44.816406 l 18.148437,31.431641 0.541016,-0.3125 L 45.224609,44.5 76.658203,62.650391 76.970703,62.107422 45.537109,43.958984 h 36.296875 v -0.625 H 45.537109 L 76.970703,25.185547 76.658203,24.642578 45.224609,42.791016 63.373047,11.357422 62.832031,11.044922 44.683594,42.474609 V 6.1816406 Z m 0.298828,0.2988281 h 0.02734 V 43.595703 l 18.558594,-32.142578 0.02148,0.01367 -18.556641,32.142578 32.140625,-18.558594 0.01367,0.02344 -32.142578,18.558593 h 37.115234 v 0.02539 H 44.417969 l 32.142578,18.558594 -0.01367,0.02344 -32.140625,-18.558593 18.556641,32.144531 -0.02148,0.01367 -18.558594,-32.144532 v 37.115235 h -0.02734 V 43.695312 L 25.796875,75.839844 25.775391,75.826172 44.333984,43.681641 12.191406,62.240234 12.177734,62.216797 44.322266,43.658203 H 7.2050781 v -0.02539 H 44.322266 L 12.177734,25.07422 l 0.01367,-0.02344 32.142578,18.558594 -18.558593,-32.142578 0.02148,-0.01367 18.558594,32.142578 z"
           id="path9098" />
        <path
           style="color:#000000;display:inline;fill:#000000;fill-opacity:1;stroke:none;stroke-width:0.504796;stroke-miterlimit:4;stroke-dasharray:none;stroke-opacity:1;paint-order:stroke markers fill"
           d="M 44.20628,6.3311038 V 43.036697 L 25.853124,11.248889 25.571089,11.411805 43.923524,43.200334 12.135001,24.847171 11.972086,25.129933 43.761571,43.483084 H 7.054295 v 0.325832 H 43.761571 L 11.972086,62.162075 12.135001,62.444831 43.923524,44.091672 25.571089,75.880197 25.853124,76.043113 44.20628,44.25531 v 36.705593 h 0.326553 V 44.25531 L 62.885991,76.043113 63.168024,75.880197 44.81559,44.091672 76.60339,62.444831 76.766307,62.162075 44.977543,43.808916 H 81.683856 V 43.483084 H 44.977543 L 76.766307,25.129933 76.60339,24.847171 44.81559,43.200334 63.168024,11.411805 62.885991,11.248889 44.532833,43.036697 V 6.3311038 Z"
           id="path9100" />
      </g>
    </g>
  </g>
</svg>
