<?xml version="1.0" encoding="UTF-8" standalone="no"?>
<!-- Created with Inkscape (http://www.inkscape.org/) -->

<svg
   width="165.38028"
   height="119.6784"
   viewBox="0 0 43.756865 31.664911"
   version="1.1"
   id="svg8"
   inkscape:version="1.1 (c68e22c387, 2021-05-23)"
   sodipodi:docname="Set 01.svg"
   xmlns:inkscape="http://www.inkscape.org/namespaces/inkscape"
   xmlns:sodipodi="http://sodipodi.sourceforge.net/DTD/sodipodi-0.dtd"
   xmlns="http://www.w3.org/2000/svg"
   xmlns:svg="http://www.w3.org/2000/svg"
   xmlns:rdf="http://www.w3.org/1999/02/22-rdf-syntax-ns#"
   xmlns:cc="http://creativecommons.org/ns#"
   xmlns:dc="http://purl.org/dc/elements/1.1/">
  <title
     id="title8983">Bullets Set 01</title>
  <defs
     id="defs2" />
  <sodipodi:namedview
     id="base"
     pagecolor="#ffffff"
     bordercolor="#666666"
     borderopacity="1.0"
     inkscape:pageopacity="0.0"
     inkscape:pageshadow="2"
     inkscape:zoom="1.4"
     inkscape:cx="98.571429"
     inkscape:cy="11.785714"
     inkscape:document-units="px"
     inkscape:current-layer="layer1"
     showgrid="false"
     showborder="false"
     units="px"
     inkscape:window-width="1640"
     inkscape:window-height="1045"
     inkscape:window-x="1627"
     inkscape:window-y="146"
     inkscape:window-maximized="0"
     inkscape:pagecheckerboard="0" />
  <metadata
     id="metadata5">
    <rdf:RDF>
      <cc:Work
         rdf:about="">
        <dc:rights>
          <cc:Agent>
            <dc:title>©2021 Bryan McWhirt</dc:title>
          </cc:Agent>
        </dc:rights>
        <dc:date>2021.07.25</dc:date>
        <dc:creator>
          <cc:Agent>
            <dc:title>Bryan McWhirt</dc:title>
          </cc:Agent>
        </dc:creator>
        <dc:language>English</dc:language>
        <dc:source>https://github.com/bmmcwhirt/OpenJournalStencils</dc:source>
        <cc:license
           rdf:resource="http://creativecommons.org/licenses/by-nc-sa/4.0/" />
        <dc:title>Bullets Set 01</dc:title>
      </cc:Work>
      <cc:License
         rdf:about="http://creativecommons.org/licenses/by-nc-sa/4.0/">
        <cc:permits
           rdf:resource="http://creativecommons.org/ns#Reproduction" />
        <cc:permits
           rdf:resource="http://creativecommons.org/ns#Distribution" />
        <cc:requires
           rdf:resource="http://creativecommons.org/ns#Notice" />
        <cc:requires
           rdf:resource="http://creativecommons.org/ns#Attribution" />
        <cc:prohibits
           rdf:resource="http://creativecommons.org/ns#CommercialUse" />
        <cc:permits
           rdf:resource="http://creativecommons.org/ns#DerivativeWorks" />
        <cc:requires
           rdf:resource="http://creativecommons.org/ns#ShareAlike" />
      </cc:License>
    </rdf:RDF>
  </metadata>
  <g
     inkscape:label="Layer 1"
     inkscape:groupmode="layer"
     id="layer1"
     transform="translate(106.4573,-68.651569)">
    <path
       id="rect7846"
       style="opacity:0.996;fill-rule:evenodd;stroke-width:0.307266;stroke-linecap:square;paint-order:markers fill stroke"
       d="m -106.4573,90.891942 h 5 v 5 h -5 z m 0,-7.408341 h 5 v 5 h -5 z m 0,-7.40834 h 5 v 5 h -5 z m 0,-7.40834 h 5 v 5 h -5 z"
       inkscape:label="Square" />
    <path
       id="path7848"
       style="opacity:0.996;fill-rule:evenodd;stroke-width:1.32283;stroke-linecap:square;paint-order:markers fill stroke"
       d="m -94.467449,91.575445 a 2.5,2.5 0 0 1 0.104975,3.527642 2.5,2.5 0 0 1 -3.527244,0.117596 2.5,2.5 0 0 1 -0.130215,-3.5268 2.5,2.5 0 0 1 3.526312,-0.142833 m 0.02617,-7.383945 a 2.5,2.5 0 0 1 0.104975,3.527642 2.5,2.5 0 0 1 -3.527244,0.117596 2.5,2.5 0 0 1 -0.130215,-3.526801 2.5,2.5 0 0 1 3.526312,-0.142833 m 0.02617,-7.383945 a 2.5,2.5 0 0 1 0.104975,3.527642 2.5,2.5 0 0 1 -3.527244,0.117596 2.5,2.5 0 0 1 -0.130215,-3.5268 2.5,2.5 0 0 1 3.526312,-0.142833 m 0.02617,-7.383945 a 2.5,2.5 0 0 1 0.104975,3.527642 2.5,2.5 0 0 1 -3.527244,0.117596 2.5,2.5 0 0 1 -0.130215,-3.5268 2.5,2.5 0 0 1 3.526312,-0.142834"
       inkscape:label="Circle" />
    <path
       id="rect7850"
       style="opacity:0.996;fill-rule:evenodd;stroke-width:0.213774;stroke-linecap:square;paint-order:markers fill stroke"
       d="m -90.912937,93.391887 2.459775,-2.459774 2.459774,2.459774 -2.459775,2.459775 z m 1.1e-5,-7.408317 2.459774,-2.459775 2.459775,2.459775 -2.459775,2.459774 z m 1.5e-5,-7.408322 2.459774,-2.459774 2.459774,2.459774 -2.459774,2.459775 z m 3e-6,-7.40833 2.459774,-2.459774 2.459775,2.459774 -2.459775,2.459774 z"
       inkscape:label="Diamond" />
    <path
       id="path7852"
       style="opacity:0.996;fill:#000000;fill-rule:evenodd;stroke-width:0.800432;stroke-linecap:square;paint-order:markers fill stroke"
       d="m -78.696728,93.642001 c 0.738472,-0.799369 0.428913,-1.858189 0.07463,-2.253071 -0.354278,-0.394878 -0.578917,-0.512346 -1.04699,-0.512346 -0.466693,0 -0.784304,0.240163 -1.064167,0.52225 l 2e-6,-2e-6 c 9.18e-4,8.95e-4 0.0017,0.0017 1.47e-4,0.0027 -0.0017,-8.3e-4 -9.17e-4,-0.0018 -1.51e-4,-0.0027 -0.279822,-0.282014 -0.597269,-0.522249 -1.063871,-0.522249 l 1e-5,10e-7 c -0.468073,0 -0.692711,0.117469 -1.046989,0.512346 -0.35428,0.39488 -0.663838,1.453702 0.07464,2.253071 0.737837,0.798679 0.0021,0.0023 2.036373,2.265285 2.03426,-2.262974 1.298535,-1.466607 2.036372,-2.265284 z m 0,-7.408338 c 0.738472,-0.799369 0.428913,-1.858189 0.07463,-2.253071 -0.354278,-0.394878 -0.578917,-0.512346 -1.04699,-0.512346 -0.466693,0 -0.784304,0.240163 -1.064167,0.52225 l 2e-6,-2e-6 c 9.18e-4,8.95e-4 0.0017,0.0017 1.47e-4,0.0027 -0.0017,-8.3e-4 -9.17e-4,-0.0018 -1.51e-4,-0.0027 -0.279822,-0.282014 -0.597269,-0.522249 -1.063871,-0.522249 l 1e-5,10e-7 c -0.468073,0 -0.692711,0.117469 -1.046989,0.512346 -0.35428,0.39488 -0.663838,1.453702 0.07464,2.253071 0.737837,0.798679 0.0021,0.0023 2.036373,2.265285 2.03426,-2.262974 1.298535,-1.466607 2.036372,-2.265284 z m 0,-7.408338 c 0.738472,-0.799369 0.428913,-1.858189 0.07463,-2.253071 -0.354278,-0.394878 -0.578917,-0.512346 -1.04699,-0.512346 -0.466693,0 -0.784304,0.240163 -1.064167,0.52225 l 2e-6,-2e-6 c 9.18e-4,8.95e-4 0.0017,0.0017 1.47e-4,0.0027 -0.0017,-8.3e-4 -9.17e-4,-0.0018 -1.51e-4,-0.0027 -0.279822,-0.282014 -0.597269,-0.522249 -1.063871,-0.522249 l 1e-5,10e-7 c -0.468073,0 -0.692711,0.117469 -1.046989,0.512346 -0.35428,0.39488 -0.663838,1.453702 0.07464,2.253071 0.737837,0.798679 0.0021,0.0023 2.036373,2.265285 2.03426,-2.262974 1.298535,-1.466607 2.036372,-2.265284 z m 0,-7.408338 c 0.738472,-0.799369 0.428913,-1.858189 0.07463,-2.253071 -0.354278,-0.394878 -0.578917,-0.512346 -1.04699,-0.512346 -0.466693,0 -0.784304,0.240163 -1.064167,0.52225 l 2e-6,-2e-6 c 9.18e-4,8.95e-4 0.0017,0.0017 1.47e-4,0.0027 -0.0017,-8.3e-4 -9.17e-4,-0.0018 -1.51e-4,-0.0027 -0.279822,-0.282014 -0.597269,-0.522249 -1.063871,-0.522249 l 1e-5,1e-6 c -0.468073,0 -0.692711,0.117469 -1.046989,0.512346 -0.35428,0.39488 -0.663838,1.453702 0.07464,2.253071 0.737837,0.798679 0.0021,0.0023 2.036373,2.265285 2.03426,-2.262974 1.298535,-1.466607 2.036372,-2.265284 z"
       inkscape:label="Heart" />
    <path
       id="path7854"
       style="opacity:0.996;fill:#000000;fill-rule:evenodd;stroke-width:0.349999;stroke-linecap:square;paint-order:markers fill stroke"
       d="m -72.972735,90.891829 c -0.554,0 -0.99994,0.445939 -0.99994,0.999939 v 0.500228 h -0.500226 c -0.554001,0 -0.99994,0.445938 -0.99994,0.999939 0,0.554 0.445939,0.999939 0.99994,0.999939 h 0.500226 v 0.499711 c 0,0.554 0.44594,1.000455 0.99994,1.000455 0.554001,0 0.999937,-0.446455 0.999937,-1.000455 v -0.499711 h 0.500229 c 0.554001,0 0.99994,-0.445939 0.99994,-0.999939 0,-0.554001 -0.445939,-0.999939 -0.99994,-0.999939 h -0.500229 v -0.500228 c 0,-0.554 -0.445936,-0.999939 -0.999937,-0.999939 z m 0,-7.408338 c -0.554,0 -0.99994,0.445939 -0.99994,0.999939 v 0.500228 h -0.500226 c -0.554001,0 -0.99994,0.445938 -0.99994,0.999939 0,0.554 0.445939,0.999939 0.99994,0.999939 h 0.500226 v 0.499711 c 0,0.554 0.44594,1.000455 0.99994,1.000455 0.554001,0 0.999937,-0.446455 0.999937,-1.000455 v -0.499711 h 0.500229 c 0.554001,0 0.99994,-0.445939 0.99994,-0.999939 0,-0.554001 -0.445939,-0.999939 -0.99994,-0.999939 h -0.500229 V 84.48343 c 0,-0.554 -0.445936,-0.999939 -0.999937,-0.999939 z m 0,-7.408338 c -0.554,0 -0.99994,0.445939 -0.99994,0.999939 v 0.500228 h -0.500226 c -0.554001,0 -0.99994,0.445938 -0.99994,0.999939 0,0.554 0.445939,0.999939 0.99994,0.999939 h 0.500226 v 0.499711 c 0,0.554 0.44594,1.000455 0.99994,1.000455 0.554001,0 0.999937,-0.446455 0.999937,-1.000455 v -0.499711 h 0.500229 c 0.554001,0 0.99994,-0.445939 0.99994,-0.999939 0,-0.554001 -0.445939,-0.999939 -0.99994,-0.999939 h -0.500229 v -0.500228 c 0,-0.554 -0.445936,-0.999939 -0.999937,-0.999939 z m 0,-7.408338 c -0.554,0 -0.99994,0.445939 -0.99994,0.999939 v 0.500228 h -0.500226 c -0.554001,0 -0.99994,0.445938 -0.99994,0.999939 0,0.554 0.445939,0.999939 0.99994,0.999939 h 0.500226 v 0.499711 c 0,0.554 0.44594,1.000455 0.99994,1.000455 0.554001,0 0.999937,-0.446455 0.999937,-1.000455 V 72.16686 h 0.500229 c 0.554001,0 0.99994,-0.445939 0.99994,-0.999939 0,-0.554001 -0.445939,-0.999939 -0.99994,-0.999939 h -0.500229 v -0.500228 c 0,-0.554 -0.445936,-0.999939 -0.999937,-0.999939 z"
       inkscape:label="Plus" />
    <path
       id="rect7856"
       style="opacity:0.996;fill-rule:evenodd;stroke-width:0.349999;stroke-linecap:square;paint-order:markers fill stroke"
       d="m -62.700432,93.391942 c 0,0.554 -0.446,1 -1,1 h -3 c -0.554,0 -1,-0.446 -1,-1 0,-0.554 0.446,-1 1,-1 h 3 c 0.554,0 1,0.446 1,1 z m 0,-7.408341 c 0,0.554 -0.446,1 -1,1 h -3 c -0.554,0 -1,-0.446 -1,-1 0,-0.554 0.446,-1 1,-1 h 3 c 0.554,0 1,0.446 1,1 z m 0,-7.40834 c 0,0.554 -0.446,1 -1,1 h -3 c -0.554,0 -1,-0.446 -1,-1 0,-0.554 0.446,-1 1,-1 h 3 c 0.554,0 1,0.446 1,1 z m 0,-7.40834 c 0,0.554 -0.446,1 -1,1 h -3 c -0.554,0 -1,-0.446 -1,-1 0,-0.554 0.446,-1 1,-1 h 3 c 0.554,0 1,0.446 1,1 z m -3.134145,14.324883 c -0.0016,0.0016 -0.0026,0.0021 -0.0041,0.0036 0.0016,0.0016 0.0024,0.0024 0.0041,0.0041 0,-0.003 0,-0.0047 0,-0.0078 z m -0.0041,0.0036 c -0.0013,-0.0013 -0.0021,-0.0021 -0.0036,-0.0036 0,0.003 0,0.0047 0,0.0078 0.0016,-0.0016 0.0021,-0.0026 0.0036,-0.0041 z"
       inkscape:label="Minus" />
  </g>
</svg>
